<svg id="Layer_1" data-name="Layer 1" xmlns="http://www.w3.org/2000/svg" viewBox="0 0 72 72"><defs><style>.cls-1{fill:none;stroke:#231f20;stroke-miterlimit:10;stroke-width:2px;}</style></defs><title>Artboard 2</title><path class="cls-1" d="M61.14,27.38H34.91a5.06,5.06,0,0,0-5.25,4.83V48.29a5.06,5.06,0,0,0,5.25,4.83H51.75l4.61,7.35L61,53.12h.16a5.06,5.06,0,0,0,5.25-4.83V32.2A5.06,5.06,0,0,0,61.14,27.38Z"/><path class="cls-1" d="M37.09,18H10.86C8,18,5.62,20,5.62,22.53V37.66a4.75,4.75,0,0,0,4.09,4.42L14,48.45l4.17-6.25H29.66V32c0-2.5,2.36-4.54,5.25-4.54h7.43V22.53C42.34,20,40,18,37.09,18Z"/></svg>